<svg width="18" height="28" viewBox="0 0 18 28" fill="none" xmlns="http://www.w3.org/2000/svg">
<path d="M3.41325 27.9286C5.06165 27.9286 6.39795 26.5923 6.39795 24.9439C6.39795 23.2955 5.06165 21.9592 3.41325 21.9592C1.76485 21.9592 0.428558 23.2955 0.428558 24.9439C0.428558 26.5923 1.76485 27.9286 3.41325 27.9286Z" fill="#B8B8B8"/>
<path d="M14.3571 27.9286C16.0055 27.9286 17.3418 26.5923 17.3418 24.9439C17.3418 23.2955 16.0055 21.9592 14.3571 21.9592C12.7087 21.9592 11.3724 23.2955 11.3724 24.9439C11.3724 26.5923 12.7087 27.9286 14.3571 27.9286Z" fill="#B8B8B8"/>
<path d="M14.3571 16.9847C16.0055 16.9847 17.3418 15.6484 17.3418 14C17.3418 12.3516 16.0055 11.0153 14.3571 11.0153C12.7087 11.0153 11.3724 12.3516 11.3724 14C11.3724 15.6484 12.7087 16.9847 14.3571 16.9847Z" fill="#B8B8B8"/>
<path d="M14.3571 6.04083C16.0055 6.04083 17.3418 4.70454 17.3418 3.05614C17.3418 1.40773 16.0055 0.0714417 14.3571 0.0714417C12.7087 0.0714417 11.3724 1.40773 11.3724 3.05614C11.3724 4.70454 12.7087 6.04083 14.3571 6.04083Z" fill="#B8B8B8"/>
<path d="M3.41325 16.9847C5.06165 16.9847 6.39795 15.6484 6.39795 14C6.39795 12.3516 5.06165 11.0153 3.41325 11.0153C1.76485 11.0153 0.428558 12.3516 0.428558 14C0.428558 15.6484 1.76485 16.9847 3.41325 16.9847Z" fill="#B8B8B8"/>
<path d="M3.41325 6.04083C5.06165 6.04083 6.39795 4.70454 6.39795 3.05614C6.39795 1.40773 5.06165 0.0714417 3.41325 0.0714417C1.76485 0.0714417 0.428558 1.40773 0.428558 3.05614C0.428558 4.70454 1.76485 6.04083 3.41325 6.04083Z" fill="#B8B8B8"/>
</svg>
