<svg width="153" height="43" viewBox="0 0 153 43" fill="none" xmlns="http://www.w3.org/2000/svg">
<path d="M21.0967 42.1017C16.9236 42.1007 12.8445 40.8654 9.37511 38.552C5.90573 36.2385 3.20185 32.9507 1.60533 29.1044C0.00881314 25.2581 -0.408655 21.0258 0.405709 16.9428C1.22007 12.8598 3.2297 9.1094 6.18051 6.1657C9.13132 3.22194 12.8908 1.21714 16.9837 0.40473C21.0765 -0.40767 25.3189 0.00879002 29.1745 1.60148C33.0301 3.19416 36.3258 5.8915 38.6448 9.3526C40.9639 12.8136 42.2021 16.8829 42.2031 21.046C42.196 26.6281 39.97 31.9796 36.0133 35.9268C32.0566 39.8739 26.6923 42.0946 21.0967 42.1017ZM21.0967 4.44378C17.804 4.44378 14.5852 5.4179 11.8475 7.2429C9.10983 9.0679 6.97614 11.6619 5.7163 14.6967C4.45647 17.7316 4.12709 21.0709 4.76981 24.2925C5.41254 27.5141 6.99851 30.4732 9.32714 32.7956C11.6558 35.1179 14.6224 36.6992 17.852 37.3394C21.0815 37.9797 24.4288 37.6501 27.4706 36.3924C30.5124 35.1347 33.112 33.0054 34.9406 30.2737C36.7692 27.542 37.7447 24.3307 37.7437 21.046C37.7428 16.6418 35.9886 12.4183 32.8668 9.3041C29.7451 6.1898 25.5114 4.43987 21.0967 4.4389V4.44378Z" fill="#FB6664"/>
<path d="M81.5196 12.302H72.3356V36H66.6366V12.302H57.4526V6.931H81.5196V12.302ZM87.4406 30.137C88.4519 31.1483 89.6683 31.654 91.0896 31.654C92.5109 31.654 93.7136 31.1483 94.6976 30.137C95.7089 29.1257 96.2146 27.718 96.2146 25.914C96.2146 24.11 95.7089 22.7023 94.6976 21.691C93.7136 20.6797 92.5109 20.174 91.0896 20.174C89.6683 20.174 88.4519 20.6797 87.4406 21.691C86.4566 22.7023 85.9646 24.11 85.9646 25.914C85.9646 27.718 86.4566 29.1257 87.4406 30.137ZM83.5046 18.247C85.5273 16.2243 88.0556 15.213 91.0896 15.213C94.1236 15.213 96.6383 16.2243 98.6336 18.247C100.656 20.2697 101.668 22.8253 101.668 25.914C101.668 29.0027 100.656 31.5583 98.6336 33.581C96.6383 35.6037 94.1236 36.615 91.0896 36.615C88.0556 36.615 85.5273 35.6037 83.5046 33.581C81.5093 31.5583 80.5116 29.0027 80.5116 25.914C80.5116 22.8253 81.5093 20.2697 83.5046 18.247ZM126.021 6.316V32.351C126.021 33.6903 126.076 34.9067 126.185 36H120.978C120.841 35.3167 120.773 34.5377 120.773 33.663C120.308 34.5103 119.57 35.1937 118.559 35.713C117.575 36.2323 116.427 36.492 115.115 36.492C112.245 36.492 109.881 35.4943 108.022 33.499C106.191 31.4763 105.275 28.9343 105.275 25.873C105.275 22.8937 106.177 20.3927 107.981 18.37C109.812 16.3473 112.136 15.336 114.951 15.336C117.848 15.336 119.748 16.1697 120.65 17.837V6.316H126.021ZM110.769 25.873C110.769 27.6497 111.234 29.0573 112.163 30.096C113.092 31.1073 114.295 31.613 115.771 31.613C117.22 31.613 118.409 31.0937 119.338 30.055C120.267 29.0163 120.732 27.6087 120.732 25.832C120.732 24.0827 120.267 22.716 119.338 21.732C118.409 20.7207 117.22 20.215 115.771 20.215C114.322 20.215 113.12 20.7207 112.163 21.732C111.234 22.7433 110.769 24.1237 110.769 25.873ZM138.168 30.137C139.18 31.1483 140.396 31.654 141.817 31.654C143.239 31.654 144.441 31.1483 145.425 30.137C146.437 29.1257 146.942 27.718 146.942 25.914C146.942 24.11 146.437 22.7023 145.425 21.691C144.441 20.6797 143.239 20.174 141.817 20.174C140.396 20.174 139.18 20.6797 138.168 21.691C137.184 22.7023 136.692 24.11 136.692 25.914C136.692 27.718 137.184 29.1257 138.168 30.137ZM134.232 18.247C136.255 16.2243 138.783 15.213 141.817 15.213C144.851 15.213 147.366 16.2243 149.361 18.247C151.384 20.2697 152.395 22.8253 152.395 25.914C152.395 29.0027 151.384 31.5583 149.361 33.581C147.366 35.6037 144.851 36.615 141.817 36.615C138.783 36.615 136.255 35.6037 134.232 33.581C132.237 31.5583 131.239 29.0027 131.239 25.914C131.239 22.8253 132.237 20.2697 134.232 18.247Z" fill="#FB6664"/>
</svg>
