<svg width="22" height="22" viewBox="0 0 22 22" fill="none" xmlns="http://www.w3.org/2000/svg">
<g clip-path="url(#clip0_17_103)">
<path d="M14.1309 10.2078H11.8935V7.94403C11.8935 7.6952 11.7947 7.45656 11.6188 7.28062C11.4428 7.10467 11.2042 7.00583 10.9553 7.00583C10.7065 7.00583 10.4679 7.10467 10.2919 7.28062C10.116 7.45656 10.0171 7.6952 10.0171 7.94403V10.2078H7.80557C7.55674 10.2078 7.3181 10.3067 7.14216 10.4826C6.96621 10.6586 6.86737 10.8972 6.86737 11.146C6.86737 11.3948 6.96621 11.6335 7.14216 11.8094C7.3181 11.9854 7.55674 12.0842 7.80557 12.0842H10.0164V14.2716C10.0164 14.5204 10.1152 14.759 10.2912 14.935C10.4671 15.1109 10.7058 15.2098 10.9546 15.2098C11.2034 15.2098 11.4421 15.1109 11.618 14.935C11.7939 14.759 11.8928 14.5204 11.8928 14.2716V12.0842H14.1301C14.3789 12.0842 14.6176 11.9854 14.7935 11.8094C14.9695 11.6335 15.0683 11.3948 15.0683 11.146C15.0683 10.8972 14.9695 10.6586 14.7935 10.4826C14.6176 10.3067 14.3789 10.2078 14.1301 10.2078" fill="#807E84"/>
<path d="M11 0.785706C8.9798 0.785706 7.00497 1.38476 5.32524 2.50712C3.64551 3.62948 2.33632 5.22474 1.56323 7.09115C0.790131 8.95757 0.587854 11.0113 0.981975 12.9927C1.3761 14.9741 2.34891 16.7941 3.7774 18.2226C5.2059 19.6511 7.02591 20.6239 9.00729 21.018C10.9887 21.4121 13.0424 21.2099 14.9088 20.4368C16.7752 19.6637 18.3705 18.3545 19.4929 16.6747C20.6152 14.995 21.2143 13.0202 21.2143 11C21.2143 8.29099 20.1381 5.69295 18.2226 3.7774C16.307 1.86185 13.709 0.785706 11 0.785706ZM11 18.9444C9.42873 18.9444 7.89275 18.4785 6.5863 17.6056C5.27984 16.7326 4.26158 15.4919 3.66029 14.0402C3.05899 12.5885 2.90166 10.9912 3.2082 9.4501C3.51474 7.90903 4.27137 6.49347 5.38242 5.38242C6.49347 4.27137 7.90904 3.51473 9.45011 3.2082C10.9912 2.90166 12.5885 3.05898 14.0402 3.66028C15.4919 4.26158 16.7326 5.27984 17.6056 6.58629C18.4785 7.89275 18.9444 9.42873 18.9444 11C18.9444 13.107 18.1074 15.1277 16.6176 16.6176C15.1277 18.1074 13.107 18.9444 11 18.9444Z" fill="#807E84"/>
</g>
<defs>
<clipPath id="clip0_17_103">
<rect width="22" height="22" fill="white"/>
</clipPath>
</defs>
</svg>
