<svg width="33" height="33" viewBox="0 0 33 33" fill="none" xmlns="http://www.w3.org/2000/svg">
<path d="M30.9795 14.777H18.1958V1.99868C18.1958 1.54026 18.0137 1.10061 17.6895 0.776453C17.3654 0.452296 16.9257 0.270187 16.4673 0.270187C16.0089 0.270187 15.5692 0.452296 15.245 0.776453C14.9209 1.10061 14.7388 1.54026 14.7388 1.99868V14.777H1.97691C1.51848 14.777 1.07883 14.9591 0.754678 15.2832C0.430522 15.6074 0.248413 16.047 0.248413 16.5055C0.248413 16.9639 0.430522 17.4035 0.754678 17.7277C1.07883 18.0519 1.51848 18.234 1.97691 18.234H14.7552V31.0068C14.7552 31.4652 14.9373 31.9049 15.2615 32.229C15.5856 32.5532 16.0253 32.7353 16.4837 32.7353C16.9421 32.7353 17.3818 32.5532 17.7059 32.229C18.0301 31.9049 18.2122 31.4652 18.2122 31.0068V18.2175H30.985C31.2153 18.224 31.4445 18.1843 31.6591 18.1007C31.8738 18.017 32.0695 17.8912 32.2346 17.7306C32.3998 17.57 32.5311 17.378 32.6207 17.1658C32.7104 16.9536 32.7566 16.7256 32.7566 16.4952C32.7566 16.2649 32.7104 16.0368 32.6207 15.8246C32.5311 15.6124 32.3998 15.4204 32.2346 15.2598C32.0695 15.0992 31.8738 14.9734 31.6591 14.8898C31.4445 14.8061 31.2153 14.7664 30.985 14.7729L30.9795 14.777Z" fill="white"/>
</svg>
