<svg width="40" height="40" viewBox="0 0 40 40" fill="none" xmlns="http://www.w3.org/2000/svg">
<path d="M20 37.5384C29.6862 37.5384 37.5385 29.6862 37.5385 20C37.5385 10.3138 29.6862 2.46153 20 2.46153C10.3138 2.46153 2.46154 10.3138 2.46154 20C2.46154 29.6862 10.3138 37.5384 20 37.5384Z" fill="#FB6664" stroke="#FB6664" stroke-width="4"/>
<path d="M17.0271 27.7685C16.4697 27.7684 15.9351 27.5471 15.5407 27.1532L10.6519 22.2643C10.2622 21.8689 10.0446 21.3355 10.0466 20.7803C10.0487 20.2252 10.2701 19.6934 10.6626 19.3008C11.0552 18.9083 11.587 18.6868 12.1422 18.6848C12.6973 18.6828 13.2308 18.9004 13.6261 19.2901L17.0271 22.6911L26.2947 13.4235C26.4895 13.2258 26.7215 13.0687 26.9772 12.9612C27.233 12.8536 27.5075 12.7977 27.785 12.7967C28.0625 12.7957 28.3374 12.8496 28.594 12.9553C28.8505 13.061 29.0836 13.2165 29.2798 13.4127C29.476 13.6089 29.6314 13.8419 29.7371 14.0985C29.8429 14.355 29.8968 14.63 29.8958 14.9074C29.8948 15.1849 29.8389 15.4594 29.7313 15.7152C29.6237 15.971 29.4666 16.2029 29.269 16.3977L18.5135 27.1517C18.1194 27.5462 17.5848 27.7681 17.0271 27.7685Z" fill="white"/>
</svg>
